mtllib magic-bolt.mtl
o crystalHead
usemtl crystalShell
v 0 0.04330126941204071 0.012000000104308128
v 2.307555149156517e-18 0.03290896490216255 0.006000000052154064
v 0.09000000357627869 0.04330126941204073 0.03400000184774399
v 0.09000000357627869 0.013856405392289182 0.017000000923871994
v 0.09000000357627869 0.04330126941204073 0.03400000184774399
v 2.307555149156517e-18 0.03290896490216255 0.006000000052154064
v 0.09000000357627869 0.04330126941204073 0.03400000184774399
v 0.09000000357627869 0.013856405392289182 0.017000000923871994
v 0.18000000715255737 0.04330126941204075 0.05000000074505806
v 0.18000000715255737 4.163336342344337e-17 0.02500000037252903
v 0.18000000715255737 0.04330126941204075 0.05000000074505806
v 0.09000000357627869 0.013856405392289182 0.017000000923871994
v 0.18000000715255737 0.04330126941204075 0.05000000074505806
v 0.18000000715255737 4.163336342344337e-17 0.02500000037252903
v 0.23499999940395355 0.043301269412040766 0.029999999329447746
v 0.23499999940395355 0.017320508137345366 0.014999999664723873
v 0.23499999940395355 0.043301269412040766 0.029999999329447746
v 0.18000000715255737 4.163336342344337e-17 0.02500000037252903
v 0.23499999940395355 0.043301269412040766 0.029999999329447746
v 0.23499999940395355 0.017320508137345366 0.014999999664723873
v 0.30000001192092896 0.04330126941204078 0
v 0.30000001192092896 0.04330126941204078 0
v 0.30000001192092896 0.04330126941204078 0
v 0.23499999940395355 0.017320508137345366 0.014999999664723873
v 2.307555149156517e-18 0.03290896490216255 0.006000000052154064
v 2.307555149156517e-18 0.03290896490216255 -0.006000000052154064
v 0.09000000357627869 0.013856405392289182 0.017000000923871994
v 0.09000000357627869 0.013856405392289182 -0.017000000923871994
v 0.09000000357627869 0.013856405392289182 0.017000000923871994
v 2.307555149156517e-18 0.03290896490216255 -0.006000000052154064
v 0.09000000357627869 0.013856405392289182 0.017000000923871994
v 0.09000000357627869 0.013856405392289182 -0.017000000923871994
v 0.18000000715255737 4.163336342344337e-17 0.02500000037252903
v 0.18000000715255737 4.163336342344337e-17 -0.02500000037252903
v 0.18000000715255737 4.163336342344337e-17 0.02500000037252903
v 0.09000000357627869 0.013856405392289182 -0.017000000923871994
v 0.18000000715255737 4.163336342344337e-17 0.02500000037252903
v 0.18000000715255737 4.163336342344337e-17 -0.02500000037252903
v 0.23499999940395355 0.017320508137345366 0.014999999664723873
v 0.23499999940395355 0.017320508137345366 -0.014999999664723873
v 0.23499999940395355 0.017320508137345366 0.014999999664723873
v 0.18000000715255737 4.163336342344337e-17 -0.02500000037252903
v 0.23499999940395355 0.017320508137345366 0.014999999664723873
v 0.23499999940395355 0.017320508137345366 -0.014999999664723873
v 0.30000001192092896 0.04330126941204078 0
v 0.30000001192092896 0.04330126941204078 0
v 0.30000001192092896 0.04330126941204078 0
v 0.23499999940395355 0.017320508137345366 -0.014999999664723873
v 2.307555149156517e-18 0.03290896490216255 -0.006000000052154064
v 3.2631144615200906e-34 0.04330126941204071 -0.012000000104308128
v 0.09000000357627869 0.013856405392289182 -0.017000000923871994
v 0.09000000357627869 0.043301269412040724 -0.03400000184774399
v 0.09000000357627869 0.013856405392289182 -0.017000000923871994
v 3.2631144615200906e-34 0.04330126941204071 -0.012000000104308128
v 0.09000000357627869 0.013856405392289182 -0.017000000923871994
v 0.09000000357627869 0.043301269412040724 -0.03400000184774399
v 0.18000000715255737 4.163336342344337e-17 -0.02500000037252903
v 0.18000000715255737 0.043301269412040745 -0.05000000074505806
v 0.18000000715255737 4.163336342344337e-17 -0.02500000037252903
v 0.09000000357627869 0.043301269412040724 -0.03400000184774399
v 0.18000000715255737 4.163336342344337e-17 -0.02500000037252903
v 0.18000000715255737 0.043301269412040745 -0.05000000074505806
v 0.23499999940395355 0.017320508137345366 -0.014999999664723873
v 0.23499999940395355 0.04330126941204076 -0.029999999329447746
v 0.23499999940395355 0.017320508137345366 -0.014999999664723873
v 0.18000000715255737 0.043301269412040745 -0.05000000074505806
v 0.23499999940395355 0.017320508137345366 -0.014999999664723873
v 0.23499999940395355 0.04330126941204076 -0.029999999329447746
v 0.30000001192092896 0.04330126941204078 0
v 0.30000001192092896 0.04330126941204078 0
v 0.30000001192092896 0.04330126941204078 0
v 0.23499999940395355 0.04330126941204076 -0.029999999329447746
v 3.2631144615200906e-34 0.04330126941204071 -0.012000000104308128
v -2.307555149156517e-18 0.05369357392191887 -0.006000000052154064
v 0.09000000357627869 0.043301269412040724 -0.03400000184774399
v 0.09000000357627869 0.07274613343179229 -0.017000000923871994
v 0.09000000357627869 0.043301269412040724 -0.03400000184774399
v -2.307555149156517e-18 0.05369357392191887 -0.006000000052154064
v 0.09000000357627869 0.043301269412040724 -0.03400000184774399
v 0.09000000357627869 0.07274613343179229 -0.017000000923871994
v 0.18000000715255737 0.043301269412040745 -0.05000000074505806
v 0.18000000715255737 0.08660253882408146 -0.02500000037252903
v 0.18000000715255737 0.043301269412040745 -0.05000000074505806
v 0.09000000357627869 0.07274613343179229 -0.017000000923871994
v 0.18000000715255737 0.043301269412040745 -0.05000000074505806
v 0.18000000715255737 0.08660253882408146 -0.02500000037252903
v 0.23499999940395355 0.04330126941204076 -0.029999999329447746
v 0.23499999940395355 0.06928203068673616 -0.014999999664723873
v 0.23499999940395355 0.04330126941204076 -0.029999999329447746
v 0.18000000715255737 0.08660253882408146 -0.02500000037252903
v 0.23499999940395355 0.04330126941204076 -0.029999999329447746
v 0.23499999940395355 0.06928203068673616 -0.014999999664723873
v 0.30000001192092896 0.04330126941204078 0
v 0.30000001192092896 0.04330126941204078 0
v 0.30000001192092896 0.04330126941204078 0
v 0.23499999940395355 0.06928203068673616 -0.014999999664723873
v -2.307555149156517e-18 0.05369357392191887 -0.006000000052154064
v -2.307555149156517e-18 0.05369357392191887 0.006000000052154064
v 0.09000000357627869 0.07274613343179229 -0.017000000923871994
v 0.09000000357627869 0.07274613343179229 0.017000000923871994
v 0.09000000357627869 0.07274613343179229 -0.017000000923871994
v -2.307555149156517e-18 0.05369357392191887 0.006000000052154064
v 0.09000000357627869 0.07274613343179229 -0.017000000923871994
v 0.09000000357627869 0.07274613343179229 0.017000000923871994
v 0.18000000715255737 0.08660253882408146 -0.02500000037252903
v 0.18000000715255737 0.08660253882408146 0.02500000037252903
v 0.18000000715255737 0.08660253882408146 -0.02500000037252903
v 0.09000000357627869 0.07274613343179229 0.017000000923871994
v 0.18000000715255737 0.08660253882408146 -0.02500000037252903
v 0.18000000715255737 0.08660253882408146 0.02500000037252903
v 0.23499999940395355 0.06928203068673616 -0.014999999664723873
v 0.23499999940395355 0.06928203068673616 0.014999999664723873
v 0.23499999940395355 0.06928203068673616 -0.014999999664723873
v 0.18000000715255737 0.08660253882408146 0.02500000037252903
v 0.23499999940395355 0.06928203068673616 -0.014999999664723873
v 0.23499999940395355 0.06928203068673616 0.014999999664723873
v 0.30000001192092896 0.04330126941204078 0
v 0.30000001192092896 0.04330126941204078 0
v 0.30000001192092896 0.04330126941204078 0
v 0.23499999940395355 0.06928203068673616 0.014999999664723873
v -2.307555149156517e-18 0.05369357392191887 0.006000000052154064
v -6.526228923040181e-34 0.04330126941204071 0.012000000104308128
v 0.09000000357627869 0.07274613343179229 0.017000000923871994
v 0.09000000357627869 0.04330126941204074 0.03400000184774399
v 0.09000000357627869 0.07274613343179229 0.017000000923871994
v -6.526228923040181e-34 0.04330126941204071 0.012000000104308128
v 0.09000000357627869 0.07274613343179229 0.017000000923871994
v 0.09000000357627869 0.04330126941204074 0.03400000184774399
v 0.18000000715255737 0.08660253882408146 0.02500000037252903
v 0.18000000715255737 0.043301269412040766 0.05000000074505806
v 0.18000000715255737 0.08660253882408146 0.02500000037252903
v 0.09000000357627869 0.04330126941204074 0.03400000184774399
v 0.18000000715255737 0.08660253882408146 0.02500000037252903
v 0.18000000715255737 0.043301269412040766 0.05000000074505806
v 0.23499999940395355 0.06928203068673616 0.014999999664723873
v 0.23499999940395355 0.04330126941204077 0.029999999329447746
v 0.23499999940395355 0.06928203068673616 0.014999999664723873
v 0.18000000715255737 0.043301269412040766 0.05000000074505806
v 0.23499999940395355 0.06928203068673616 0.014999999664723873
v 0.23499999940395355 0.04330126941204077 0.029999999329447746
v 0.30000001192092896 0.04330126941204078 0
v 0.30000001192092896 0.04330126941204078 0
v 0.30000001192092896 0.04330126941204078 0
v 0.23499999940395355 0.04330126941204077 0.029999999329447746
vt 0 0
vt 0.1666666716337204 0
vt 0 0.25
vt 0.1666666716337204 0.25
vt 0 0.25
vt 0.1666666716337204 0
vt 0 0.25
vt 0.1666666716337204 0.25
vt 0 0.5
vt 0.1666666716337204 0.5
vt 0 0.5
vt 0.1666666716337204 0.25
vt 0 0.5
vt 0.1666666716337204 0.5
vt 0 0.75
vt 0.1666666716337204 0.75
vt 0 0.75
vt 0.1666666716337204 0.5
vt 0 0.75
vt 0.1666666716337204 0.75
vt 0 1
vt 0.1666666716337204 1
vt 0 1
vt 0.1666666716337204 0.75
vt 0.1666666716337204 0
vt 0.3333333432674408 0
vt 0.1666666716337204 0.25
vt 0.3333333432674408 0.25
vt 0.1666666716337204 0.25
vt 0.3333333432674408 0
vt 0.1666666716337204 0.25
vt 0.3333333432674408 0.25
vt 0.1666666716337204 0.5
vt 0.3333333432674408 0.5
vt 0.1666666716337204 0.5
vt 0.3333333432674408 0.25
vt 0.1666666716337204 0.5
vt 0.3333333432674408 0.5
vt 0.1666666716337204 0.75
vt 0.3333333432674408 0.75
vt 0.1666666716337204 0.75
vt 0.3333333432674408 0.5
vt 0.1666666716337204 0.75
vt 0.3333333432674408 0.75
vt 0.1666666716337204 1
vt 0.3333333432674408 1
vt 0.1666666716337204 1
vt 0.3333333432674408 0.75
vt 0.3333333432674408 0
vt 0.5 0
vt 0.3333333432674408 0.25
vt 0.5 0.25
vt 0.3333333432674408 0.25
vt 0.5 0
vt 0.3333333432674408 0.25
vt 0.5 0.25
vt 0.3333333432674408 0.5
vt 0.5 0.5
vt 0.3333333432674408 0.5
vt 0.5 0.25
vt 0.3333333432674408 0.5
vt 0.5 0.5
vt 0.3333333432674408 0.75
vt 0.5 0.75
vt 0.3333333432674408 0.75
vt 0.5 0.5
vt 0.3333333432674408 0.75
vt 0.5 0.75
vt 0.3333333432674408 1
vt 0.5 1
vt 0.3333333432674408 1
vt 0.5 0.75
vt 0.5 0
vt 0.6666666865348816 0
vt 0.5 0.25
vt 0.6666666865348816 0.25
vt 0.5 0.25
vt 0.6666666865348816 0
vt 0.5 0.25
vt 0.6666666865348816 0.25
vt 0.5 0.5
vt 0.6666666865348816 0.5
vt 0.5 0.5
vt 0.6666666865348816 0.25
vt 0.5 0.5
vt 0.6666666865348816 0.5
vt 0.5 0.75
vt 0.6666666865348816 0.75
vt 0.5 0.75
vt 0.6666666865348816 0.5
vt 0.5 0.75
vt 0.6666666865348816 0.75
vt 0.5 1
vt 0.6666666865348816 1
vt 0.5 1
vt 0.6666666865348816 0.75
vt 0.6666666865348816 0
vt 0.8333333134651184 0
vt 0.6666666865348816 0.25
vt 0.8333333134651184 0.25
vt 0.6666666865348816 0.25
vt 0.8333333134651184 0
vt 0.6666666865348816 0.25
vt 0.8333333134651184 0.25
vt 0.6666666865348816 0.5
vt 0.8333333134651184 0.5
vt 0.6666666865348816 0.5
vt 0.8333333134651184 0.25
vt 0.6666666865348816 0.5
vt 0.8333333134651184 0.5
vt 0.6666666865348816 0.75
vt 0.8333333134651184 0.75
vt 0.6666666865348816 0.75
vt 0.8333333134651184 0.5
vt 0.6666666865348816 0.75
vt 0.8333333134651184 0.75
vt 0.6666666865348816 1
vt 0.8333333134651184 1
vt 0.6666666865348816 1
vt 0.8333333134651184 0.75
vt 0.8333333134651184 0
vt 1 0
vt 0.8333333134651184 0.25
vt 1 0.25
vt 0.8333333134651184 0.25
vt 1 0
vt 0.8333333134651184 0.25
vt 1 0.25
vt 0.8333333134651184 0.5
vt 1 0.5
vt 0.8333333134651184 0.5
vt 1 0.25
vt 0.8333333134651184 0.5
vt 1 0.5
vt 0.8333333134651184 0.75
vt 1 0.75
vt 0.8333333134651184 0.75
vt 1 0.5
vt 0.8333333134651184 0.75
vt 1 0.75
vt 0.8333333134651184 1
vt 1 1
vt 0.8333333134651184 1
vt 1 0.75
vn -0.20710526691921707 -0.48915935236191255 0.847248804313818
vn -0.20710526691921707 -0.48915935236191255 0.847248804313818
vn -0.20710526691921707 -0.48915935236191255 0.847248804313818
vn -0.20710528118122898 -0.4891593508523134 0.8472488016991158
vn -0.20710528118122898 -0.4891593508523134 0.8472488016991158
vn -0.20710528118122898 -0.4891593508523134 0.8472488016991158
vn -0.15216715510850068 -0.4941773970706637 0.8559403350296382
vn -0.15216715510850068 -0.4941773970706637 0.8559403350296382
vn -0.15216715510850068 -0.4941773970706637 0.8559403350296382
vn -0.15216715510850068 -0.4941773970706637 0.8559403350296382
vn -0.15216715510850068 -0.4941773970706637 0.8559403350296382
vn -0.15216715510850068 -0.4941773970706637 0.8559403350296382
vn 0.3003757551271416 -0.4769104946143761 0.8260331626868684
vn 0.3003757551271416 -0.4769104946143761 0.8260331626868684
vn 0.3003757551271416 -0.4769104946143761 0.8260331626868684
vn 0.3003757551271416 -0.4769104946143761 0.8260331626868684
vn 0.3003757551271416 -0.4769104946143761 0.8260331626868684
vn 0.3003757551271416 -0.4769104946143761 0.8260331626868684
vn 0.3711536911149141 -0.46428574212935664 0.8041664549253265
vn 0.3711536911149141 -0.46428574212935664 0.8041664549253265
vn 0.3711536911149141 -0.46428574212935664 0.8041664549253265
vn 0 0 0
vn 0 0 0
vn 0 0 0
vn -0.207105258676616 -0.9783186657876317 0
vn -0.207105258676616 -0.9783186657876317 0
vn -0.207105258676616 -0.9783186657876317 0
vn -0.207105258676616 -0.9783186657876317 0
vn -0.207105258676616 -0.9783186657876317 0
vn -0.207105258676616 -0.9783186657876317 0
vn -0.15216716086232968 -0.988354771908902 0
vn -0.15216716086232968 -0.988354771908902 0
vn -0.15216716086232968 -0.988354771908902 0
vn -0.15216715189808105 -0.9883547732890382 0
vn -0.15216715189808105 -0.9883547732890382 0
vn -0.15216715189808105 -0.9883547732890382 0
vn 0.3003757340126758 -0.9538209572117536 0
vn 0.3003757340126758 -0.9538209572117536 0
vn 0.3003757340126758 -0.9538209572117536 0
vn 0.30037576112606645 -0.953820948673249 0
vn 0.30037576112606645 -0.953820948673249 0
vn 0.30037576112606645 -0.953820948673249 0
vn 0.371153679273877 -0.9285714546341945 0
vn 0.371153679273877 -0.9285714546341945 0
vn 0.371153679273877 -0.9285714546341945 0
vn 0 0 0
vn 0 0 0
vn 0 0 0
vn -0.20710526691921707 -0.48915935236191255 -0.847248804313818
vn -0.20710526691921707 -0.48915935236191255 -0.847248804313818
vn -0.20710526691921707 -0.48915935236191255 -0.847248804313818
vn -0.20710528118122898 -0.4891593508523134 -0.8472488016991158
vn -0.20710528118122898 -0.4891593508523134 -0.8472488016991158
vn -0.20710528118122898 -0.4891593508523134 -0.8472488016991158
vn -0.15216715510850068 -0.4941773970706637 -0.8559403350296382
vn -0.15216715510850068 -0.4941773970706637 -0.8559403350296382
vn -0.15216715510850068 -0.4941773970706637 -0.8559403350296382
vn -0.15216714055237357 -0.49417739819119466 -0.8559403369704547
vn -0.15216714055237357 -0.49417739819119466 -0.8559403369704547
vn -0.15216714055237357 -0.49417739819119466 -0.8559403369704547
vn 0.3003757551271416 -0.4769104946143761 -0.8260331626868684
vn 0.3003757551271416 -0.4769104946143761 -0.8260331626868684
vn 0.3003757551271416 -0.4769104946143761 -0.8260331626868684
vn 0.3003757551271416 -0.4769104946143761 -0.8260331626868684
vn 0.3003757551271416 -0.4769104946143761 -0.8260331626868684
vn 0.3003757551271416 -0.4769104946143761 -0.8260331626868684
vn 0.3711536911149141 -0.46428574212935664 -0.8041664549253265
vn 0.3711536911149141 -0.46428574212935664 -0.8041664549253265
vn 0.3711536911149141 -0.46428574212935664 -0.8041664549253265
vn 0 0 0
vn 0 0 0
vn 0 0 0
vn -0.2071052669192173 0.48915935236191244 -0.847248804313818
vn -0.2071052669192173 0.48915935236191244 -0.847248804313818
vn -0.2071052669192173 0.48915935236191244 -0.847248804313818
vn -0.2071052811812292 0.48915935085231327 -0.8472488016991158
vn -0.2071052811812292 0.48915935085231327 -0.8472488016991158
vn -0.2071052811812292 0.48915935085231327 -0.8472488016991158
vn -0.1521671551085009 0.4941773970706636 -0.8559403350296382
vn -0.1521671551085009 0.4941773970706636 -0.8559403350296382
vn -0.1521671551085009 0.4941773970706636 -0.8559403350296382
vn -0.1521671551085009 0.4941773970706636 -0.8559403350296382
vn -0.1521671551085009 0.4941773970706636 -0.8559403350296382
vn -0.1521671551085009 0.4941773970706636 -0.8559403350296382
vn 0.3003757551271414 0.47691049461437623 -0.8260331626868684
vn 0.3003757551271414 0.47691049461437623 -0.8260331626868684
vn 0.3003757551271414 0.47691049461437623 -0.8260331626868684
vn 0.3003757551271414 0.47691049461437623 -0.8260331626868684
vn 0.3003757551271414 0.47691049461437623 -0.8260331626868684
vn 0.3003757551271414 0.47691049461437623 -0.8260331626868684
vn 0.37115369111491386 0.46428574212935675 -0.8041664549253265
vn 0.37115369111491386 0.46428574212935675 -0.8041664549253265
vn 0.37115369111491386 0.46428574212935675 -0.8041664549253265
vn 0 0 0
vn 0 0 0
vn 0 0 0
vn -0.20710525867661644 0.9783186657876317 0
vn -0.20710525867661644 0.9783186657876317 0
vn -0.20710525867661644 0.9783186657876317 0
vn -0.20710525867661644 0.9783186657876317 0
vn -0.20710525867661644 0.9783186657876317 0
vn -0.20710525867661644 0.9783186657876317 0
vn -0.15216716086233012 0.988354771908902 0
vn -0.15216716086233012 0.988354771908902 0
vn -0.15216716086233012 0.988354771908902 0
vn -0.1521671518980815 0.9883547732890382 0
vn -0.1521671518980815 0.9883547732890382 0
vn -0.1521671518980815 0.9883547732890382 0
vn 0.30037573401267537 0.9538209572117539 0
vn 0.30037573401267537 0.9538209572117539 0
vn 0.30037573401267537 0.9538209572117539 0
vn 0.30037576112606595 0.953820948673249 0
vn 0.30037576112606595 0.953820948673249 0
vn 0.30037576112606595 0.953820948673249 0
vn 0.37115367927387655 0.9285714546341948 0
vn 0.37115367927387655 0.9285714546341948 0
vn 0.37115367927387655 0.9285714546341948 0
vn 0 0 0
vn 0 0 0
vn 0 0 0
vn -0.2071052669192173 0.48915935236191244 0.847248804313818
vn -0.2071052669192173 0.48915935236191244 0.847248804313818
vn -0.2071052669192173 0.48915935236191244 0.847248804313818
vn -0.2071052811812292 0.48915935085231327 0.8472488016991158
vn -0.2071052811812292 0.48915935085231327 0.8472488016991158
vn -0.2071052811812292 0.48915935085231327 0.8472488016991158
vn -0.1521671551085009 0.4941773970706636 0.8559403350296382
vn -0.1521671551085009 0.4941773970706636 0.8559403350296382
vn -0.1521671551085009 0.4941773970706636 0.8559403350296382
vn -0.1521671405523738 0.49417739819119455 0.8559403369704547
vn -0.1521671405523738 0.49417739819119455 0.8559403369704547
vn -0.1521671405523738 0.49417739819119455 0.8559403369704547
vn 0.3003757551271414 0.47691049461437623 0.8260331626868684
vn 0.3003757551271414 0.47691049461437623 0.8260331626868684
vn 0.3003757551271414 0.47691049461437623 0.8260331626868684
vn 0.3003757551271414 0.47691049461437623 0.8260331626868684
vn 0.3003757551271414 0.47691049461437623 0.8260331626868684
vn 0.3003757551271414 0.47691049461437623 0.8260331626868684
vn 0.37115369111491386 0.46428574212935675 0.8041664549253265
vn 0.37115369111491386 0.46428574212935675 0.8041664549253265
vn 0.37115369111491386 0.46428574212935675 0.8041664549253265
vn 0 0 0
vn 0 0 0
vn 0 0 0
f 1/1/1 2/2/2 3/3/3
f 4/4/4 5/5/5 6/6/6
f 7/7/7 8/8/8 9/9/9
f 10/10/10 11/11/11 12/12/12
f 13/13/13 14/14/14 15/15/15
f 16/16/16 17/17/17 18/18/18
f 19/19/19 20/20/20 21/21/21
f 22/22/22 23/23/23 24/24/24
f 25/25/25 26/26/26 27/27/27
f 28/28/28 29/29/29 30/30/30
f 31/31/31 32/32/32 33/33/33
f 34/34/34 35/35/35 36/36/36
f 37/37/37 38/38/38 39/39/39
f 40/40/40 41/41/41 42/42/42
f 43/43/43 44/44/44 45/45/45
f 46/46/46 47/47/47 48/48/48
f 49/49/49 50/50/50 51/51/51
f 52/52/52 53/53/53 54/54/54
f 55/55/55 56/56/56 57/57/57
f 58/58/58 59/59/59 60/60/60
f 61/61/61 62/62/62 63/63/63
f 64/64/64 65/65/65 66/66/66
f 67/67/67 68/68/68 69/69/69
f 70/70/70 71/71/71 72/72/72
f 73/73/73 74/74/74 75/75/75
f 76/76/76 77/77/77 78/78/78
f 79/79/79 80/80/80 81/81/81
f 82/82/82 83/83/83 84/84/84
f 85/85/85 86/86/86 87/87/87
f 88/88/88 89/89/89 90/90/90
f 91/91/91 92/92/92 93/93/93
f 94/94/94 95/95/95 96/96/96
f 97/97/97 98/98/98 99/99/99
f 100/100/100 101/101/101 102/102/102
f 103/103/103 104/104/104 105/105/105
f 106/106/106 107/107/107 108/108/108
f 109/109/109 110/110/110 111/111/111
f 112/112/112 113/113/113 114/114/114
f 115/115/115 116/116/116 117/117/117
f 118/118/118 119/119/119 120/120/120
f 121/121/121 122/122/122 123/123/123
f 124/124/124 125/125/125 126/126/126
f 127/127/127 128/128/128 129/129/129
f 130/130/130 131/131/131 132/132/132
f 133/133/133 134/134/134 135/135/135
f 136/136/136 137/137/137 138/138/138
f 139/139/139 140/140/140 141/141/141
f 142/142/142 143/143/143 144/144/144
o glowCore
usemtl crystalCore
v 0.012000000104308128 0.03970126947388053 0.00623538280013825
v 0.01200000010430813 0.03610126937534507 -9.259270824027444e-11
v 0.09300000220537186 0.03310126904398205 0.017666918874698886
v 0.09300000220537186 0.022901268431522247 -1.411050495198074e-10
v 0.09300000220537186 0.03310126904398205 0.017666918874698886
v 0.01200000010430813 0.03610126937534507 -9.259270824027444e-11
v 0.09300000220537186 0.03310126904398205 0.017666918874698886
v 0.09300000220537186 0.022901268431522247 -1.411050495198074e-10
v 0.17399999499320984 0.02830126974731688 0.025980761532817875
v 0.17399999499320984 0.013301270306133622 1.2906124086109472e-10
v 0.17399999499320984 0.02830126974731688 0.025980761532817875
v 0.09300000220537186 0.022901268431522247 -1.411050495198074e-10
v 0.17399999499320984 0.02830126974731688 0.025980761532817875
v 0.17399999499320984 0.013301270306133622 1.2906124086109472e-10
v 0.22349999845027924 0.03430126979947096 0.015588456597071122
v 0.22349999845027924 0.025301269235079735 -5.495343442449285e-10
v 0.22349999845027924 0.03430126979947096 0.015588456597071122
v 0.17399999499320984 0.013301270306133622 1.2906124086109472e-10
v 0.22349999845027924 0.03430126979947096 0.015588456597071122
v 0.22349999845027924 0.025301269235079735 -5.495343442449285e-10
v 0.28200000524520874 0.04330126941204077 0
v 0.28200000524520874 0.04330126941204077 0
v 0.28200000524520874 0.04330126941204077 0
v 0.22349999845027924 0.025301269235079735 -5.495343442449285e-10
v 0.01200000010430813 0.03610126937534507 -9.259270824027444e-11
v 0.01200000010430813 0.039701269313505254 -0.006235382892730958
v 0.09300000220537186 0.022901268431522247 -1.411050495198074e-10
v 0.09300000220537186 0.03310126879958093 -0.017666919015803938
v 0.09300000220537186 0.022901268431522247 -1.411050495198074e-10
v 0.01200000010430813 0.039701269313505254 -0.006235382892730958
v 0.09300000220537186 0.022901268431522247 -1.411050495198074e-10
v 0.09300000220537186 0.03310126879958093 -0.017666919015803938
v 0.17399999499320984 0.013301270306133622 1.2906124086109472e-10
v 0.17399999499320984 0.028301269970857496 -0.025980761403756634
v 0.17399999499320984 0.013301270306133622 1.2906124086109472e-10
v 0.09300000220537186 0.03310126879958093 -0.017666919015803938
v 0.17399999499320984 0.013301270306133622 1.2906124086109472e-10
v 0.17399999499320984 0.028301269970857496 -0.025980761403756634
v 0.22349999845027924 0.025301269235079735 -5.495343442449285e-10
v 0.22349999845027924 0.034301268847649544 -0.015588457146605467
v 0.22349999845027924 0.025301269235079735 -5.495343442449285e-10
v 0.17399999499320984 0.028301269970857496 -0.025980761403756634
v 0.22349999845027924 0.025301269235079735 -5.495343442449285e-10
v 0.22349999845027924 0.034301268847649544 -0.015588457146605467
v 0.28200000524520874 0.04330126941204077 0
v 0.28200000524520874 0.04330126941204077 0
v 0.28200000524520874 0.04330126941204077 0
v 0.22349999845027924 0.034301268847649544 -0.015588457146605467
v 0.01200000010430813 0.039701269313505254 -0.006235382892730958
v 0.012000000104308128 0.04690126935020089 -0.006235382800138251
v 0.09300000220537186 0.03310126879958093 -0.017666919015803938
v 0.09300000220537186 0.053501269780099406 -0.017666918874698886
v 0.09300000220537186 0.03310126879958093 -0.017666919015803938
v 0.012000000104308128 0.04690126935020089 -0.006235382800138251
v 0.09300000220537186 0.03310126879958093 -0.017666919015803938
v 0.09300000220537186 0.053501269780099406 -0.017666918874698886
v 0.17399999499320984 0.028301269970857496 -0.025980761403756634
v 0.17399999499320984 0.05830126907676462 -0.025980761532817878
v 0.17399999499320984 0.028301269970857496 -0.025980761403756634
v 0.09300000220537186 0.053501269780099406 -0.017666918874698886
v 0.17399999499320984 0.028301269970857496 -0.025980761403756634
v 0.17399999499320984 0.05830126907676462 -0.025980761532817878
v 0.22349999845027924 0.034301268847649544 -0.015588457146605467
v 0.22349999845027924 0.05230126902461057 -0.015588456597071124
v 0.22349999845027924 0.034301268847649544 -0.015588457146605467
v 0.17399999499320984 0.05830126907676462 -0.025980761532817878
v 0.22349999845027924 0.034301268847649544 -0.015588457146605467
v 0.22349999845027924 0.05230126902461057 -0.015588456597071124
v 0.28200000524520874 0.04330126941204077 0
v 0.28200000524520874 0.04330126941204077 0
v 0.28200000524520874 0.04330126941204077 0
v 0.22349999845027924 0.05230126902461057 -0.015588456597071124
v 0.012000000104308128 0.04690126935020089 -0.006235382800138251
v 0.012000000104308127 0.050501269448736355 9.259270824027444e-11
v 0.09300000220537186 0.053501269780099406 -0.017666918874698886
v 0.09300000220537186 0.06370127039255921 1.411050495198074e-10
v 0.09300000220537186 0.053501269780099406 -0.017666918874698886
v 0.012000000104308127 0.050501269448736355 9.259270824027444e-11
v 0.09300000220537186 0.053501269780099406 -0.017666918874698886
v 0.09300000220537186 0.06370127039255921 1.411050495198074e-10
v 0.17399999499320984 0.05830126907676462 -0.025980761532817878
v 0.17399999499320984 0.07330126851794788 -1.2906124086109472e-10
v 0.17399999499320984 0.05830126907676462 -0.025980761532817878
v 0.09300000220537186 0.06370127039255921 1.411050495198074e-10
v 0.17399999499320984 0.05830126907676462 -0.025980761532817878
v 0.17399999499320984 0.07330126851794788 -1.2906124086109472e-10
v 0.22349999845027924 0.05230126902461057 -0.015588456597071124
v 0.22349999845027924 0.06130126958900178 5.495343442449285e-10
v 0.22349999845027924 0.05230126902461057 -0.015588456597071124
v 0.17399999499320984 0.07330126851794788 -1.2906124086109472e-10
v 0.22349999845027924 0.05230126902461057 -0.015588456597071124
v 0.22349999845027924 0.06130126958900178 5.495343442449285e-10
v 0.28200000524520874 0.04330126941204077 0
v 0.28200000524520874 0.04330126941204077 0
v 0.28200000524520874 0.04330126941204077 0
v 0.22349999845027924 0.06130126958900178 5.495343442449285e-10
v 0.012000000104308127 0.050501269448736355 9.259270824027444e-11
v 0.012000000104308127 0.046901269510576174 0.006235382892730958
v 0.09300000220537186 0.06370127039255921 1.411050495198074e-10
v 0.09300000220537186 0.05350127002450053 0.017666919015803938
v 0.09300000220537186 0.06370127039255921 1.411050495198074e-10
v 0.012000000104308127 0.046901269510576174 0.006235382892730958
v 0.09300000220537186 0.06370127039255921 1.411050495198074e-10
v 0.09300000220537186 0.05350127002450053 0.017666919015803938
v 0.17399999499320984 0.07330126851794788 -1.2906124086109472e-10
v 0.17399999499320984 0.058301268853224 0.025980761403756634
v 0.17399999499320984 0.07330126851794788 -1.2906124086109472e-10
v 0.09300000220537186 0.05350127002450053 0.017666919015803938
v 0.17399999499320984 0.07330126851794788 -1.2906124086109472e-10
v 0.17399999499320984 0.058301268853224 0.025980761403756634
v 0.22349999845027924 0.06130126958900178 5.495343442449285e-10
v 0.22349999845027924 0.052301269976431974 0.015588457146605467
v 0.22349999845027924 0.06130126958900178 5.495343442449285e-10
v 0.17399999499320984 0.058301268853224 0.025980761403756634
v 0.22349999845027924 0.06130126958900178 5.495343442449285e-10
v 0.22349999845027924 0.052301269976431974 0.015588457146605467
v 0.28200000524520874 0.04330126941204077 0
v 0.28200000524520874 0.04330126941204077 0
v 0.28200000524520874 0.04330126941204077 0
v 0.22349999845027924 0.052301269976431974 0.015588457146605467
v 0.012000000104308127 0.046901269510576174 0.006235382892730958
v 0.012000000104308128 0.039701269473880536 0.006235382800138251
v 0.09300000220537186 0.05350127002450053 0.017666919015803938
v 0.09300000220537186 0.03310126904398206 0.01766691887469889
v 0.09300000220537186 0.05350127002450053 0.017666919015803938
v 0.012000000104308128 0.039701269473880536 0.006235382800138251
v 0.09300000220537186 0.05350127002450053 0.017666919015803938
v 0.09300000220537186 0.03310126904398206 0.01766691887469889
v 0.17399999499320984 0.058301268853224 0.025980761403756634
v 0.17399999499320984 0.028301269747316886 0.025980761532817878
v 0.17399999499320984 0.058301268853224 0.025980761403756634
v 0.09300000220537186 0.03310126904398206 0.01766691887469889
v 0.17399999499320984 0.058301268853224 0.025980761403756634
v 0.17399999499320984 0.028301269747316886 0.025980761532817878
v 0.22349999845027924 0.052301269976431974 0.015588457146605467
v 0.22349999845027924 0.03430126979947096 0.015588456597071124
v 0.22349999845027924 0.052301269976431974 0.015588457146605467
v 0.17399999499320984 0.028301269747316886 0.025980761532817878
v 0.22349999845027924 0.052301269976431974 0.015588457146605467
v 0.22349999845027924 0.03430126979947096 0.015588456597071124
v 0.28200000524520874 0.04330126941204077 0
v 0.28200000524520874 0.04330126941204077 0
v 0.28200000524520874 0.04330126941204077 0
v 0.22349999845027924 0.03430126979947096 0.015588456597071124
vt 0 0
vt 0.1666666716337204 0
vt 0 0.25
vt 0.1666666716337204 0.25
vt 0 0.25
vt 0.1666666716337204 0
vt 0 0.25
vt 0.1666666716337204 0.25
vt 0 0.5
vt 0.1666666716337204 0.5
vt 0 0.5
vt 0.1666666716337204 0.25
vt 0 0.5
vt 0.1666666716337204 0.5
vt 0 0.75
vt 0.1666666716337204 0.75
vt 0 0.75
vt 0.1666666716337204 0.5
vt 0 0.75
vt 0.1666666716337204 0.75
vt 0 1
vt 0.1666666716337204 1
vt 0 1
vt 0.1666666716337204 0.75
vt 0.1666666716337204 0
vt 0.3333333432674408 0
vt 0.1666666716337204 0.25
vt 0.3333333432674408 0.25
vt 0.1666666716337204 0.25
vt 0.3333333432674408 0
vt 0.1666666716337204 0.25
vt 0.3333333432674408 0.25
vt 0.1666666716337204 0.5
vt 0.3333333432674408 0.5
vt 0.1666666716337204 0.5
vt 0.3333333432674408 0.25
vt 0.1666666716337204 0.5
vt 0.3333333432674408 0.5
vt 0.1666666716337204 0.75
vt 0.3333333432674408 0.75
vt 0.1666666716337204 0.75
vt 0.3333333432674408 0.5
vt 0.1666666716337204 0.75
vt 0.3333333432674408 0.75
vt 0.1666666716337204 1
vt 0.3333333432674408 1
vt 0.1666666716337204 1
vt 0.3333333432674408 0.75
vt 0.3333333432674408 0
vt 0.5 0
vt 0.3333333432674408 0.25
vt 0.5 0.25
vt 0.3333333432674408 0.25
vt 0.5 0
vt 0.3333333432674408 0.25
vt 0.5 0.25
vt 0.3333333432674408 0.5
vt 0.5 0.5
vt 0.3333333432674408 0.5
vt 0.5 0.25
vt 0.3333333432674408 0.5
vt 0.5 0.5
vt 0.3333333432674408 0.75
vt 0.5 0.75
vt 0.3333333432674408 0.75
vt 0.5 0.5
vt 0.3333333432674408 0.75
vt 0.5 0.75
vt 0.3333333432674408 1
vt 0.5 1
vt 0.3333333432674408 1
vt 0.5 0.75
vt 0.5 0
vt 0.6666666865348816 0
vt 0.5 0.25
vt 0.6666666865348816 0.25
vt 0.5 0.25
vt 0.6666666865348816 0
vt 0.5 0.25
vt 0.6666666865348816 0.25
vt 0.5 0.5
vt 0.6666666865348816 0.5
vt 0.5 0.5
vt 0.6666666865348816 0.25
vt 0.5 0.5
vt 0.6666666865348816 0.5
vt 0.5 0.75
vt 0.6666666865348816 0.75
vt 0.5 0.75
vt 0.6666666865348816 0.5
vt 0.5 0.75
vt 0.6666666865348816 0.75
vt 0.5 1
vt 0.6666666865348816 1
vt 0.5 1
vt 0.6666666865348816 0.75
vt 0.6666666865348816 0
vt 0.8333333134651184 0
vt 0.6666666865348816 0.25
vt 0.8333333134651184 0.25
vt 0.6666666865348816 0.25
vt 0.8333333134651184 0
vt 0.6666666865348816 0.25
vt 0.8333333134651184 0.25
vt 0.6666666865348816 0.5
vt 0.8333333134651184 0.5
vt 0.6666666865348816 0.5
vt 0.8333333134651184 0.25
vt 0.6666666865348816 0.5
vt 0.8333333134651184 0.5
vt 0.6666666865348816 0.75
vt 0.8333333134651184 0.75
vt 0.6666666865348816 0.75
vt 0.8333333134651184 0.5
vt 0.6666666865348816 0.75
vt 0.8333333134651184 0.75
vt 0.6666666865348816 1
vt 0.8333333134651184 1
vt 0.6666666865348816 1
vt 0.8333333134651184 0.75
vt 0.8333333134651184 0
vt 1 0
vt 0.8333333134651184 0.25
vt 1 0.25
vt 0.8333333134651184 0.25
vt 1 0
vt 0.8333333134651184 0.25
vt 1 0.25
vt 0.8333333134651184 0.5
vt 1 0.5
vt 0.8333333134651184 0.5
vt 1 0.25
vt 0.8333333134651184 0.5
vt 1 0.5
vt 0.8333333134651184 0.75
vt 1 0.75
vt 0.8333333134651184 0.75
vt 1 0.5
vt 0.8333333134651184 0.75
vt 1 0.75
vt 0.8333333134651184 1
vt 1 1
vt 0.8333333134651184 1
vt 1 0.75
vn -0.13974523763916197 -0.857527536595648 0.495093720963389
vn -0.13974523763916197 -0.857527536595648 0.495093720963389
vn -0.13974523763916197 -0.857527536595648 0.495093720963389
vn -0.13974523763916197 -0.857527536595648 0.495093720963389
vn -0.13974523763916197 -0.857527536595648 0.495093720963389
vn -0.13974523763916197 -0.857527536595648 0.495093720963389
vn -0.10210362007265293 -0.8614993460349958 0.4973868992538242
vn -0.10210362007265293 -0.8614993460349958 0.4973868992538242
vn -0.10210362007265293 -0.8614993460349958 0.4973868992538242
vn -0.102103618559142 -0.8614993590743142 0.49738687697975614
vn -0.102103618559142 -0.8614993590743142 0.49738687697975614
vn -0.102103618559142 -0.8614993590743142 0.49738687697975614
vn 0.20546619613729178 -0.8475480724734118 0.4893321030664926
vn 0.20546619613729178 -0.8475480724734118 0.4893321030664926
vn 0.20546619613729178 -0.8475480724734118 0.4893321030664926
vn 0.20546618486156448 -0.8475480616187593 0.48933212660187886
vn 0.20546618486156448 -0.8475480616187593 0.48933212660187886
vn 0.20546618486156448 -0.8475480616187593 0.48933212660187886
vn 0.25748458282753595 -0.8368250978038058 0.4831412270669734
vn 0.25748458282753595 -0.8368250978038058 0.4831412270669734
vn 0.25748458282753595 -0.8368250978038058 0.4831412270669734
vn 0 0 0
vn 0 0 0
vn 0 0 0
vn -0.1397452390108921 -0.8575275220833098 -0.4950937457123116
vn -0.1397452390108921 -0.8575275220833098 -0.4950937457123116
vn -0.1397452390108921 -0.8575275220833098 -0.4950937457123116
vn -0.1397452390108921 -0.8575275220833098 -0.4950937457123116
vn -0.1397452390108921 -0.8575275220833098 -0.4950937457123116
vn -0.1397452390108921 -0.8575275220833098 -0.4950937457123116
vn -0.10210361573371779 -0.8614993550436217 -0.4973868845411239
vn -0.10210361573371779 -0.8614993550436217 -0.4973868845411239
vn -0.10210361573371779 -0.8614993550436217 -0.4973868845411239
vn -0.10210362310662512 -0.8614993543882521 -0.497386884162746
vn -0.10210362310662512 -0.8614993543882521 -0.497386884162746
vn -0.10210362310662512 -0.8614993543882521 -0.497386884162746
vn 0.20546616616728555 -0.8475480758755741 -0.489332109757912
vn 0.20546616616728555 -0.8475480758755741 -0.489332109757912
vn 0.20546616616728555 -0.8475480758755741 -0.489332109757912
vn 0.2054661518951969 -0.847548078470499 -0.48933211125609255
vn 0.2054661518951969 -0.847548078470499 -0.48933211125609255
vn 0.2054661518951969 -0.847548078470499 -0.48933211125609255
vn 0.2574846076119821 -0.8368251057611606 -0.48314120007584316
vn 0.2574846076119821 -0.8368251057611606 -0.48314120007584316
vn 0.2574846076119821 -0.8368251057611606 -0.48314120007584316
vn 0 0 0
vn 0 0 0
vn 0 0 0
vn -0.13974523763916213 -2.8689365001536806e-8 -0.9901874916182155
vn -0.13974523763916213 -2.8689365001536806e-8 -0.9901874916182155
vn -0.13974523763916213 -2.8689365001536806e-8 -0.9901874916182155
vn -0.13974523763916213 -2.8689365001536806e-8 -0.9901874916182155
vn -0.13974523763916213 -2.8689365001536806e-8 -0.9901874916182155
vn -0.13974523763916213 -2.8689365001536806e-8 -0.9901874916182155
vn -0.10210362007265313 1.7245884991494768e-8 -0.9947737686368991
vn -0.10210362007265313 1.7245884991494768e-8 -0.9947737686368991
vn -0.10210362007265313 1.7245884991494768e-8 -0.9947737686368991
vn -0.1021036185591422 -8.563682966268542e-9 -0.9947737687922461
vn -0.1021036185591422 -8.563682966268542e-9 -0.9947737687922461
vn -0.1021036185591422 -8.563682966268542e-9 -0.9947737687922461
vn 0.20546616759311442 -4.09385822586507e-9 -0.978664219216478
vn 0.20546616759311442 -4.09385822586507e-9 -0.978664219216478
vn 0.20546616759311442 -4.09385822586507e-9 -0.978664219216478
vn 0.20546619913365305 2.171571040092005e-8 -0.9786642125946824
vn 0.20546619913365305 2.171571040092005e-8 -0.9786642125946824
vn 0.20546619913365305 2.171571040092005e-8 -0.9786642125946824
vn 0.2574845828275357 2.7353681861405772e-8 -0.96628240675598
vn 0.2574845828275357 2.7353681861405772e-8 -0.96628240675598
vn 0.2574845828275357 2.7353681861405772e-8 -0.96628240675598
vn 0 0 0
vn 0 0 0
vn 0 0 0
vn -0.1397452376391623 0.8575275365956478 -0.495093720963389
vn -0.1397452376391623 0.8575275365956478 -0.495093720963389
vn -0.1397452376391623 0.8575275365956478 -0.495093720963389
vn -0.1397452376391623 0.8575275365956478 -0.495093720963389
vn -0.1397452376391623 0.8575275365956478 -0.495093720963389
vn -0.1397452376391623 0.8575275365956478 -0.495093720963389
vn -0.10210362007265332 0.8614993460349958 -0.4973868992538242
vn -0.10210362007265332 0.8614993460349958 -0.4973868992538242
vn -0.10210362007265332 0.8614993460349958 -0.4973868992538242
vn -0.10210361855914239 0.8614993590743142 -0.49738687697975614
vn -0.10210361855914239 0.8614993590743142 -0.49738687697975614
vn -0.10210361855914239 0.8614993590743142 -0.49738687697975614
vn 0.20546619613729145 0.8475480724734118 -0.4893321030664926
vn 0.20546619613729145 0.8475480724734118 -0.4893321030664926
vn 0.20546619613729145 0.8475480724734118 -0.4893321030664926
vn 0.2054661848615642 0.8475480616187594 -0.48933212660187897
vn 0.2054661848615642 0.8475480616187594 -0.48933212660187897
vn 0.2054661848615642 0.8475480616187594 -0.48933212660187897
vn 0.2574845828275355 0.8368250978038059 -0.4831412270669734
vn 0.2574845828275355 0.8368250978038059 -0.4831412270669734
vn 0.2574845828275355 0.8368250978038059 -0.4831412270669734
vn 0 0 0
vn 0 0 0
vn 0 0 0
vn -0.1397452390108925 0.8575275220833098 0.4950937457123116
vn -0.1397452390108925 0.8575275220833098 0.4950937457123116
vn -0.1397452390108925 0.8575275220833098 0.4950937457123116
vn -0.1397452390108925 0.8575275220833098 0.4950937457123116
vn -0.1397452390108925 0.8575275220833098 0.4950937457123116
vn -0.1397452390108925 0.8575275220833098 0.4950937457123116
vn -0.10210361573371818 0.8614993550436217 0.4973868845411239
vn -0.10210361573371818 0.8614993550436217 0.4973868845411239
vn -0.10210361573371818 0.8614993550436217 0.4973868845411239
vn -0.1021036231066255 0.8614993543882521 0.497386884162746
vn -0.1021036231066255 0.8614993543882521 0.497386884162746
vn -0.1021036231066255 0.8614993543882521 0.497386884162746
vn 0.20546616616728522 0.8475480758755743 0.48933210975791214
vn 0.20546616616728522 0.8475480758755743 0.48933210975791214
vn 0.20546616616728522 0.8475480758755743 0.48933210975791214
vn 0.2054661518951965 0.847548078470499 0.48933211125609255
vn 0.2054661518951965 0.847548078470499 0.48933211125609255
vn 0.2054661518951965 0.847548078470499 0.48933211125609255
vn 0.2574846076119818 0.8368251057611609 0.48314120007584316
vn 0.2574846076119818 0.8368251057611609 0.48314120007584316
vn 0.2574846076119818 0.8368251057611609 0.48314120007584316
vn 0 0 0
vn 0 0 0
vn 0 0 0
vn -0.13974523763916213 2.86893648905145e-8 0.9901874916182155
vn -0.13974523763916213 2.86893648905145e-8 0.9901874916182155
vn -0.13974523763916213 2.86893648905145e-8 0.9901874916182155
vn -0.13974523763916213 2.86893648905145e-8 0.9901874916182155
vn -0.13974523763916213 2.86893648905145e-8 0.9901874916182155
vn -0.13974523763916213 2.86893648905145e-8 0.9901874916182155
vn -0.10210362007265313 -1.7245884991494768e-8 0.9947737686368991
vn -0.10210362007265313 -1.7245884991494768e-8 0.9947737686368991
vn -0.10210362007265313 -1.7245884991494768e-8 0.9947737686368991
vn -0.1021036185591422 8.563682966268542e-9 0.9947737687922461
vn -0.1021036185591422 8.563682966268542e-9 0.9947737687922461
vn -0.1021036185591422 8.563682966268542e-9 0.9947737687922461
vn 0.20546616759311442 4.093858336887373e-9 0.978664219216478
vn 0.20546616759311442 4.093858336887373e-9 0.978664219216478
vn 0.20546616759311442 4.093858336887373e-9 0.978664219216478
vn 0.20546619913365305 -2.171571028989775e-8 0.9786642125946824
vn 0.20546619913365305 -2.171571028989775e-8 0.9786642125946824
vn 0.20546619913365305 -2.171571028989775e-8 0.9786642125946824
vn 0.2574845828275357 -2.735368175038347e-8 0.96628240675598
vn 0.2574845828275357 -2.735368175038347e-8 0.96628240675598
vn 0.2574845828275357 -2.735368175038347e-8 0.96628240675598
vn 0 0 0
vn 0 0 0
vn 0 0 0
f 145/145/145 146/146/146 147/147/147
f 148/148/148 149/149/149 150/150/150
f 151/151/151 152/152/152 153/153/153
f 154/154/154 155/155/155 156/156/156
f 157/157/157 158/158/158 159/159/159
f 160/160/160 161/161/161 162/162/162
f 163/163/163 164/164/164 165/165/165
f 166/166/166 167/167/167 168/168/168
f 169/169/169 170/170/170 171/171/171
f 172/172/172 173/173/173 174/174/174
f 175/175/175 176/176/176 177/177/177
f 178/178/178 179/179/179 180/180/180
f 181/181/181 182/182/182 183/183/183
f 184/184/184 185/185/185 186/186/186
f 187/187/187 188/188/188 189/189/189
f 190/190/190 191/191/191 192/192/192
f 193/193/193 194/194/194 195/195/195
f 196/196/196 197/197/197 198/198/198
f 199/199/199 200/200/200 201/201/201
f 202/202/202 203/203/203 204/204/204
f 205/205/205 206/206/206 207/207/207
f 208/208/208 209/209/209 210/210/210
f 211/211/211 212/212/212 213/213/213
f 214/214/214 215/215/215 216/216/216
f 217/217/217 218/218/218 219/219/219
f 220/220/220 221/221/221 222/222/222
f 223/223/223 224/224/224 225/225/225
f 226/226/226 227/227/227 228/228/228
f 229/229/229 230/230/230 231/231/231
f 232/232/232 233/233/233 234/234/234
f 235/235/235 236/236/236 237/237/237
f 238/238/238 239/239/239 240/240/240
f 241/241/241 242/242/242 243/243/243
f 244/244/244 245/245/245 246/246/246
f 247/247/247 248/248/248 249/249/249
f 250/250/250 251/251/251 252/252/252
f 253/253/253 254/254/254 255/255/255
f 256/256/256 257/257/257 258/258/258
f 259/259/259 260/260/260 261/261/261
f 262/262/262 263/263/263 264/264/264
f 265/265/265 266/266/266 267/267/267
f 268/268/268 269/269/269 270/270/270
f 271/271/271 272/272/272 273/273/273
f 274/274/274 275/275/275 276/276/276
f 277/277/277 278/278/278 279/279/279
f 280/280/280 281/281/281 282/282/282
f 283/283/283 284/284/284 285/285/285
f 286/286/286 287/287/287 288/288/288
